<svg xmlns="http://www.w3.org/2000/svg" xmlns:xlink="http://www.w3.org/1999/xlink" id="svg">
    <symbol viewBox="0 0 24 24" id="magnify">
        <path d="M9.5,3A6.5,6.5 0 0,1 16,9.5C16,11.11 15.41,12.59 14.44,13.73L14.71,14H15.5L20.5,19L19,20.5L14,15.5V14.71L13.73,14.44C12.59,15.41 11.11,16 9.5,16A6.5,6.5 0 0,1 3,9.5A6.5,6.5 0 0,1 9.5,3M9.5,5C7,5 5,7 5,9.5C5,12 7,14 9.5,14C12,14 14,12 14,9.5C14,7 12,5 9.5,5Z"/>
    </symbol>
    <symbol viewBox="0 0 24 24" id="main">
        <path d="M10,20V14H14V20H19V12H22L12,3L2,12H5V20H10Z"/>
    </symbol>

    <symbol viewBox="0 0 24 24" id="favorite">
        <path d="M12,21.35L10.55,20.03C5.4,15.36 2,12.27 2,8.5C2,5.41 4.42,3 7.5,3C9.24,3 10.91,3.81 12,5.08C13.09,3.81 14.76,3 16.5,3C19.58,3 22,5.41 22,8.5C22,12.27 18.6,15.36 13.45,20.03L12,21.35Z"/>
    </symbol>
    <symbol viewBox="0 0 24 24" id="intresting">
        <path d="M11.5,22V17.35C11,18.13 10,19.09 8.03,19.81C8.03,19.81 8.53,18.1 9.94,16.95C8.64,17.23 6.68,17.19 4,16C4,16 6.47,14.59 9.28,14.97C7.69,14 5.7,12.08 4.17,8.11C4.17,8.11 8.67,9.34 10.91,13.14C8.88,8.24 12,2 12,2C14.43,7.47 13.91,11.1 13.12,13.1C15.37,9.33 19.83,8.11 19.83,8.11C18.3,12.08 16.31,14 14.72,14.97C17.53,14.59 20,16 20,16C17.32,17.19 15.36,17.23 14.06,16.95C15.47,18.1 15.97,19.81 15.97,19.81C14,19.09 13,18.13 12.5,17.35V22H11.5Z"
        />
    </symbol>
    <symbol viewBox="0 0 24 24" id="artist">
        <path d="M12,4A4,4 0 0,1 16,8A4,4 0 0,1 12,12A4,4 0 0,1 8,8A4,4 0 0,1 12,4M12,14C16.42,14 20,15.79 20,18V20H4V18C4,15.79 7.58,14 12,14Z"/>
    </symbol>
    <symbol viewBox="0 0 24 24" id="albums">
        <path d="M12,11A1,1 0 0,0 11,12A1,1 0 0,0 12,13A1,1 0 0,0 13,12A1,1 0 0,0 12,11M12,16.5C9.5,16.5 7.5,14.5 7.5,12C7.5,9.5 9.5,7.5 12,7.5C14.5,7.5 16.5,9.5 16.5,12C16.5,14.5 14.5,16.5 12,16.5M12,2A10,10 0 0,0 2,12A10,10 0 0,0 12,22A10,10 0 0,0 22,12A10,10 0 0,0 12,2Z"/>
    </symbol>
    <symbol viewBox="0 0 24 24" id="songs">
        <path d="M12,3V12.26C11.5,12.09 11,12 10.5,12C8,12 6,14 6,16.5C6,19 8,21 10.5,21C13,21 15,19 15,16.5V6H19V3H12Z"/>
    </symbol>
</svg>